<svg xmlns="http://www.w3.org/2000/svg" xmlns:xlink="http://www.w3.org/1999/xlink" width="500" zoomAndPan="magnify" viewBox="0 0 375 374.999991" height="500" preserveAspectRatio="xMidYMid meet" version="1.0">
  <defs>
    <filter x="0%" y="0%" width="100%" height="100%" id="1b194124cd">
      <feColorMatrix values="0 0 0 0 1 0 0 0 0 1 0 0 0 0 1 0 0 0 1 0" color-interpolation-filters="sRGB" />
    </filter>
    <g />
    <mask id="758cafb018">
      <g filter="url(#1b194124cd)">
        <rect x="-37.5" width="450" fill="#000000" y="-37.499999" height="449.999989" fill-opacity="0.09" />
      </g>
    </mask>
    <clipPath id="5459fd2594">
      <path d="M 133 18 L 189.78125 18 L 189.78125 124 L 133 124 Z M 133 18 " clip-rule="nonzero" />
    </clipPath>
    <clipPath id="3fef125b0d">
      <path d="M 0.78125 18 L 58 18 L 58 124 L 0.78125 124 Z M 0.78125 18 " clip-rule="nonzero" />
    </clipPath>
    <clipPath id="82df1f485a">
      <path d="M 64 0.078125 L 126 0.078125 L 126 141.304688 L 64 141.304688 Z M 64 0.078125 " clip-rule="nonzero" />
    </clipPath>
    <clipPath id="b179d356ad">
      <rect x="0" width="191" y="0" height="142" />
    </clipPath>
    <clipPath id="0c127b3ff7">
      <path d="M 120 118 L 289 118 L 289 145 L 120 145 Z M 120 118 " clip-rule="nonzero" />
    </clipPath>
    <clipPath id="be71fcf387">
      <path d="M 119.269531 117.769531 L 286.894531 106.550781 L 289.199219 140.972656 L 121.574219 152.191406 Z M 119.269531 117.769531 " clip-rule="nonzero" />
    </clipPath>
    <clipPath id="8e360837b3">
      <path d="M 121.578125 152.261719 L 289.203125 141.042969 L 286.898438 106.621094 L 119.273438 117.839844 Z M 121.578125 152.261719 " clip-rule="nonzero" />
    </clipPath>
    <mask id="96560e8735">
      <g filter="url(#1b194124cd)">
        <rect x="-37.5" width="450" fill="#000000" y="-37.499999" height="449.999989" fill-opacity="0.63" />
      </g>
    </mask>
    <clipPath id="e38bd2faf4">
      <rect x="0" width="127" y="0" height="24" />
    </clipPath>
  </defs>
  <g mask="url(#758cafb018)">
    <g transform="matrix(1, 0, 0, 1, 99, 112)">
      <g clip-path="url(#b179d356ad)">
        <g clip-path="url(#5459fd2594)">
          <path fill="#d44a9e" d="M 137.40625 123.039062 C 136.285156 123.039062 135.164062 122.609375 134.308594 121.753906 C 132.597656 120.042969 132.597656 117.269531 134.308594 115.554688 L 179.222656 70.644531 L 134.308594 25.730469 C 132.597656 24.019531 132.597656 21.242188 134.308594 19.53125 C 136.019531 17.820312 138.792969 17.820312 140.507812 19.53125 L 188.519531 67.542969 C 189.339844 68.367188 189.804688 69.480469 189.804688 70.644531 C 189.804688 71.804688 189.339844 72.921875 188.519531 73.742188 L 140.507812 121.753906 C 139.652344 122.609375 138.527344 123.039062 137.40625 123.039062 Z M 137.40625 123.039062 " fill-opacity="1" fill-rule="nonzero" />
        </g>
        <g clip-path="url(#3fef125b0d)">
          <path fill="#d44a9e" d="M 53.226562 123.039062 C 52.105469 123.039062 50.984375 122.609375 50.128906 121.753906 L 2.117188 73.742188 C 1.292969 72.921875 0.832031 71.808594 0.832031 70.644531 C 0.832031 69.480469 1.292969 68.367188 2.117188 67.546875 L 50.128906 19.535156 C 51.839844 17.824219 54.613281 17.820312 56.328125 19.535156 C 58.039062 21.246094 58.039062 24.019531 56.328125 25.730469 L 11.414062 70.644531 L 56.328125 115.558594 C 58.039062 117.269531 58.039062 120.042969 56.328125 121.753906 C 55.46875 122.609375 54.347656 123.039062 53.226562 123.039062 Z M 53.226562 123.039062 " fill-opacity="1" fill-rule="nonzero" />
        </g>
        <g clip-path="url(#82df1f485a)">
          <path fill="#d44a9e" d="M 69.226562 141.140625 C 68.691406 141.140625 68.148438 141.042969 67.621094 140.832031 C 65.371094 139.945312 64.265625 137.398438 65.152344 135.148438 L 117.328125 2.921875 C 118.214844 0.671875 120.761719 -0.433594 123.015625 0.453125 C 125.265625 1.339844 126.371094 3.886719 125.480469 6.140625 L 73.304688 138.367188 C 72.625 140.089844 70.976562 141.140625 69.226562 141.140625 Z M 69.226562 141.140625 " fill-opacity="1" fill-rule="nonzero" />
        </g>
      </g>
    </g>
  </g>
  <g fill="#ffffff" fill-opacity="1">
    <g transform="translate(104.611964, 202.41718)">
      <g>
        <path d="M 34.53125 -15.75 C 35.09375 -16.03125 35.660156 -16.238281 36.234375 -16.375 C 36.804688 -16.507812 37.257812 -16.546875 37.59375 -16.484375 C 37.925781 -16.429688 38.023438 -16.296875 37.890625 -16.078125 C 37.765625 -15.859375 37.269531 -15.535156 36.40625 -15.109375 C 34.96875 -14.484375 33.4375 -13.570312 31.8125 -12.375 C 30.1875 -11.1875 28.742188 -9.847656 27.484375 -8.359375 C 26.222656 -6.867188 25.425781 -5.285156 25.09375 -3.609375 C 23.78125 3.617188 21.875 10.695312 19.375 17.625 C 18.257812 20.882812 16.847656 24.03125 15.140625 27.0625 C 14.390625 28.40625 13.5 29.617188 12.46875 30.703125 C 11.851562 31.359375 11.109375 31.765625 10.234375 31.921875 C 8.773438 32.109375 7.671875 31.972656 6.921875 31.515625 C 6.179688 31.066406 5.644531 30.082031 5.3125 28.5625 C 5 26.738281 5.03125 24.910156 5.40625 23.078125 C 6.15625 19.035156 7.457031 15.171875 9.3125 11.484375 C 10.769531 8.503906 12.382812 5.632812 14.15625 2.875 C 15.925781 0.113281 17.925781 -2.492188 20.15625 -4.953125 C 20.71875 -5.578125 21.113281 -6.234375 21.34375 -6.921875 C 21.570312 -7.617188 21.71875 -8.34375 21.78125 -9.09375 C 21.851562 -10.019531 21.945312 -10.953125 22.0625 -11.890625 C 22.550781 -15.765625 22.90625 -19.671875 23.125 -23.609375 C 23.601562 -31.910156 23.4375 -40.210938 22.625 -48.515625 C 22.1875 -52.921875 21.289062 -57.238281 19.9375 -61.46875 C 19.34375 -63.445312 18.4375 -65.273438 17.21875 -66.953125 C 16.875 -67.390625 16.519531 -67.796875 16.15625 -68.171875 C 15.1875 -69.191406 14.257812 -69.75 13.375 -69.84375 C 12.5 -69.9375 11.519531 -69.566406 10.4375 -68.734375 C 6.800781 -66.054688 4.59375 -62.484375 3.8125 -58.015625 C 3.539062 -56.378906 2.660156 -55.804688 1.171875 -56.296875 C 0.460938 -56.546875 0.0859375 -57.023438 0.046875 -57.734375 C 0.015625 -58.359375 0.078125 -58.992188 0.234375 -59.640625 C 1.265625 -63.515625 3.253906 -66.789062 6.203125 -69.46875 C 7.503906 -70.707031 8.945312 -71.507812 10.53125 -71.875 C 12.113281 -72.25 13.785156 -72.285156 15.546875 -71.984375 C 16.535156 -71.796875 17.421875 -71.429688 18.203125 -70.890625 C 18.984375 -70.347656 19.710938 -69.707031 20.390625 -68.96875 C 22.035156 -67.03125 23.242188 -64.867188 24.015625 -62.484375 C 24.878906 -60.066406 25.546875 -57.617188 26.015625 -55.140625 C 26.484375 -52.660156 26.828125 -50.160156 27.046875 -47.640625 C 27.296875 -44.015625 27.5 -40.601562 27.65625 -37.40625 C 27.6875 -36.1875 27.742188 -35.015625 27.828125 -33.890625 C 27.710938 -26.890625 27.316406 -20.46875 26.640625 -14.625 C 26.566406 -13.882812 26.515625 -13.140625 26.484375 -12.390625 C 26.484375 -12.234375 26.5 -12.078125 26.53125 -11.921875 C 26.5625 -11.773438 26.671875 -11.6875 26.859375 -11.65625 C 26.984375 -11.625 27.097656 -11.625 27.203125 -11.65625 C 27.316406 -11.6875 27.40625 -11.71875 27.46875 -11.75 C 29.039062 -12.832031 30.53125 -13.710938 31.9375 -14.390625 C 32.738281 -14.765625 33.601562 -15.21875 34.53125 -15.75 Z M 19.328125 3.890625 C 19.410156 3.546875 19.46875 3.1875 19.5 2.8125 C 19.5 2.664062 19.515625 2.5 19.546875 2.3125 C 17.378906 5.039062 15.492188 7.878906 13.890625 10.828125 C 12.296875 13.785156 11.019531 16.921875 10.0625 20.234375 C 9.71875 21.441406 9.441406 22.648438 9.234375 23.859375 C 9.035156 25.066406 8.992188 26.28125 9.109375 27.5 C 9.109375 27.6875 9.140625 27.851562 9.203125 28 C 9.273438 28.15625 9.40625 28.25 9.59375 28.28125 C 9.9375 28.351562 10.203125 28.242188 10.390625 27.953125 C 11.617188 26.191406 12.640625 24.3125 13.453125 22.3125 C 14.753906 19.332031 15.867188 16.304688 16.796875 13.234375 C 17.734375 10.171875 18.578125 7.054688 19.328125 3.890625 Z M 19.328125 3.890625 " />
      </g>
    </g>
  </g>
  <g fill="#ffffff" fill-opacity="1">
    <g transform="translate(142.695038, 202.41718)">
      <g>
        <path d="M 21 -9.765625 C 22.300781 -11.835938 23.070312 -13.148438 23.3125 -13.703125 C 23.5625 -14.265625 23.757812 -14.238281 23.90625 -13.625 C 24.050781 -13.019531 23.628906 -11.644531 22.640625 -9.5 C 21.660156 -7.363281 20.441406 -5.710938 18.984375 -4.546875 C 17.535156 -3.390625 16.179688 -2.960938 14.921875 -3.265625 C 13.660156 -3.578125 12.757812 -4.457031 12.21875 -5.90625 C 11.675781 -7.351562 11.515625 -9.175781 11.734375 -11.375 C 11.734375 -11.40625 11.75 -11.5 11.78125 -11.65625 C 11.8125 -12.03125 11.875 -12.578125 11.96875 -13.296875 C 12.0625 -14.023438 12.128906 -14.78125 12.171875 -15.5625 C 12.210938 -16.34375 12.1875 -16.984375 12.09375 -17.484375 C 12 -17.992188 11.769531 -18.175781 11.40625 -18.03125 C 10.507812 -17.539062 9.628906 -16.578125 8.765625 -15.140625 C 7.910156 -13.710938 7.132812 -12.210938 6.4375 -10.640625 C 5.75 -9.078125 5.265625 -7.816406 4.984375 -6.859375 C 4.859375 -6.554688 4.742188 -6.234375 4.640625 -5.890625 C 4.492188 -5.453125 4.328125 -5.015625 4.140625 -4.578125 C 3.648438 -3.304688 2.796875 -2.8125 1.578125 -3.09375 C 0.898438 -3.25 0.5 -3.664062 0.375 -4.34375 C 0.34375 -4.863281 0.328125 -5.363281 0.328125 -5.84375 C 0.328125 -6.144531 0.3125 -6.421875 0.28125 -6.671875 C 0.207031 -10.429688 0.113281 -14.21875 0 -18.03125 C 0.03125 -18.46875 0.222656 -18.769531 0.578125 -18.9375 C 0.941406 -19.113281 1.367188 -19.203125 1.859375 -19.203125 C 2.222656 -19.203125 2.570312 -19.097656 2.90625 -18.890625 C 3.238281 -18.691406 3.445312 -18.269531 3.53125 -17.625 C 3.5625 -17.40625 3.578125 -17.1875 3.578125 -16.96875 C 3.609375 -16.84375 3.625 -16.726562 3.625 -16.625 C 3.695312 -16.101562 3.734375 -15.65625 3.734375 -15.28125 C 3.734375 -14.726562 3.769531 -14.347656 3.84375 -14.140625 C 3.925781 -13.941406 4.085938 -13.953125 4.328125 -14.171875 C 4.578125 -14.390625 4.976562 -14.914062 5.53125 -15.75 C 6.5 -17.238281 7.691406 -18.5 9.109375 -19.53125 C 10.421875 -20.457031 11.851562 -20.84375 13.40625 -20.6875 C 14.738281 -20.550781 15.632812 -19.851562 16.09375 -18.59375 C 16.28125 -17.945312 16.375 -17.296875 16.375 -16.640625 C 16.375 -15.992188 16.332031 -15.335938 16.25 -14.671875 C 16.21875 -13.992188 16.164062 -13.300781 16.09375 -12.59375 C 16.039062 -12.375 16 -12.15625 15.96875 -11.9375 C 15.75 -9.507812 15.828125 -7.882812 16.203125 -7.0625 C 16.578125 -6.25 17.144531 -5.976562 17.90625 -6.25 C 18.664062 -6.53125 19.695312 -7.703125 21 -9.765625 Z M 21 -9.765625 " />
      </g>
    </g>
  </g>
  <g fill="#ffffff" fill-opacity="1">
    <g transform="translate(165.037108, 202.41718)">
      <g>
        <path d="M 27.59375 -12.828125 C 27.9375 -12.910156 28.222656 -12.9375 28.453125 -12.90625 C 28.691406 -12.882812 28.820312 -12.800781 28.84375 -12.65625 C 28.875 -12.507812 28.660156 -12.285156 28.203125 -11.984375 C 28.023438 -11.878906 27.804688 -11.734375 27.546875 -11.546875 C 26.648438 -10.910156 25.609375 -10.203125 24.421875 -9.421875 C 23.148438 -8.554688 21.992188 -7.765625 20.953125 -7.046875 C 19.921875 -6.328125 19.234375 -5.78125 18.890625 -5.40625 C 18.515625 -4.882812 18.28125 -4.3125 18.1875 -3.6875 C 18.09375 -3.070312 18.03125 -2.410156 18 -1.703125 C 17.945312 -1.140625 17.890625 -0.582031 17.828125 -0.03125 C 16.859375 5.96875 15.226562 11.085938 12.9375 15.328125 C 10.644531 19.566406 8.0625 22.941406 5.1875 25.453125 C 2.320312 27.960938 -0.472656 29.601562 -3.203125 30.375 C -5.941406 31.144531 -8.25 31.039062 -10.125 30.0625 C -12.007812 29.09375 -13.117188 27.253906 -13.453125 24.546875 C -13.640625 22.347656 -13.191406 20.101562 -12.109375 17.8125 C -11.023438 15.519531 -9.582031 13.320312 -7.78125 11.21875 C -5.976562 9.125 -4.066406 7.195312 -2.046875 5.4375 C -0.0351562 3.6875 1.820312 2.238281 3.53125 1.09375 C 4 0.75 4.5 0.410156 5.03125 0.078125 C 7.445312 -1.597656 9.910156 -3.21875 12.421875 -4.78125 C 14.003906 -5.675781 14.75 -6.976562 14.65625 -8.6875 C 14.65625 -8.875 14.65625 -9.132812 14.65625 -9.46875 C 14.601562 -9.957031 14.578125 -10.484375 14.578125 -11.046875 C 13.609375 -9.523438 12.25 -8.144531 10.5 -6.90625 C 8.75 -5.664062 6.953125 -4.78125 5.109375 -4.25 C 3.273438 -3.71875 1.707031 -3.75 0.40625 -4.34375 C -0.894531 -4.9375 -1.570312 -6.316406 -1.625 -8.484375 C -1.570312 -9.597656 -1.25 -10.617188 -0.65625 -11.546875 C 0.75 -14.035156 2.703125 -15.992188 5.203125 -17.421875 C 6.140625 -17.929688 7.265625 -18.296875 8.578125 -18.515625 C 9.898438 -18.742188 11.175781 -18.726562 12.40625 -18.46875 C 13.632812 -18.207031 14.617188 -17.613281 15.359375 -16.6875 C 15.546875 -16.988281 15.816406 -17.1875 16.171875 -17.28125 C 16.523438 -17.375 16.859375 -17.421875 17.171875 -17.421875 C 17.234375 -17.421875 17.28125 -17.421875 17.3125 -17.421875 C 18.707031 -17.554688 19.359375 -16.921875 19.265625 -15.515625 C 19.234375 -14.492188 19.203125 -13.488281 19.171875 -12.5 C 19.140625 -11.75 19.097656 -11.019531 19.046875 -10.3125 C 19.097656 -9.46875 19.566406 -9.191406 20.453125 -9.484375 C 21.335938 -9.773438 22.414062 -10.28125 23.6875 -11 C 25.144531 -11.84375 26.445312 -12.453125 27.59375 -12.828125 Z M 11.296875 -11.421875 C 12.859375 -12.992188 13.710938 -14.207031 13.859375 -15.0625 C 13.492188 -15.738281 12.914062 -16.144531 12.125 -16.28125 C 11.332031 -16.425781 10.53125 -16.414062 9.71875 -16.25 C 8.90625 -16.09375 8.222656 -15.847656 7.671875 -15.515625 C 6.128906 -14.546875 5 -13.367188 4.28125 -11.984375 C 3.5625 -10.609375 3.296875 -9.4375 3.484375 -8.46875 C 3.671875 -7.5 4.394531 -7.164062 5.65625 -7.46875 C 6.914062 -7.769531 8.796875 -9.085938 11.296875 -11.421875 Z M 13.40625 -0.3125 C 13.40625 -0.351562 13.421875 -0.394531 13.453125 -0.4375 C 13.503906 -0.65625 13.546875 -0.929688 13.578125 -1.265625 C 13.617188 -1.609375 13.609375 -1.890625 13.546875 -2.109375 C 13.484375 -2.328125 13.34375 -2.359375 13.125 -2.203125 C 11.570312 -1.117188 9.941406 0.0703125 8.234375 1.375 C 7.210938 2.113281 6.253906 2.796875 5.359375 3.421875 C 4.109375 4.359375 2.644531 5.570312 0.96875 7.0625 C -0.707031 8.550781 -2.347656 10.21875 -3.953125 12.0625 C -5.566406 13.90625 -6.894531 15.796875 -7.9375 17.734375 C -8.976562 19.671875 -9.5 21.53125 -9.5 23.3125 C -9.375 25.851562 -8.660156 27.378906 -7.359375 27.890625 C -6.054688 28.410156 -4.414062 28.09375 -2.4375 26.9375 C -0.46875 25.789062 1.570312 23.929688 3.6875 21.359375 C 5.8125 18.785156 7.75 15.65625 9.5 11.96875 C 11.257812 8.289062 12.5625 4.195312 13.40625 -0.3125 Z M 13.40625 -0.3125 " />
      </g>
    </g>
  </g>
  <g fill="#ffffff" fill-opacity="1">
    <g transform="translate(191.923764, 202.41718)">
      <g>
        <path d="M 16.203125 -12.15625 C 16.523438 -12.820312 16.742188 -13.128906 16.859375 -13.078125 C 16.972656 -13.023438 17 -12.753906 16.9375 -12.265625 C 16.882812 -11.785156 16.78125 -11.242188 16.625 -10.640625 C 16.40625 -9.710938 16.023438 -8.632812 15.484375 -7.40625 C 14.941406 -6.175781 14.34375 -5.0625 13.6875 -4.0625 C 12.707031 -2.675781 11.492188 -1.628906 10.046875 -0.921875 C 8.597656 -0.222656 7.285156 -0.0507812 6.109375 -0.40625 C 4.929688 -0.757812 4.25 -1.867188 4.0625 -3.734375 C 4.03125 -5.285156 4.164062 -6.992188 4.46875 -8.859375 C 4.570312 -9.640625 4.679688 -10.398438 4.796875 -11.140625 C 4.796875 -11.410156 4.726562 -11.617188 4.59375 -11.765625 C 4.457031 -11.910156 4.28125 -11.96875 4.0625 -11.9375 C 3.90625 -11.9375 3.738281 -11.9375 3.5625 -11.9375 C 2.625 -11.78125 1.675781 -11.796875 0.71875 -11.984375 C -0.4375 -12.328125 -1.109375 -12.898438 -1.296875 -13.703125 C -1.484375 -14.503906 -1.46875 -15.554688 -1.25 -16.859375 C -1.125 -17.785156 -0.773438 -18.484375 -0.203125 -18.953125 C 0.367188 -19.421875 1.046875 -19.613281 1.828125 -19.53125 C 2.910156 -19.425781 3.4375 -19.007812 3.40625 -18.28125 C 3.375 -17.550781 3.171875 -16.773438 2.796875 -15.953125 C 2.453125 -15.253906 2.269531 -14.671875 2.25 -14.203125 C 2.238281 -13.742188 2.640625 -13.582031 3.453125 -13.71875 C 3.640625 -13.757812 3.84375 -13.816406 4.0625 -13.890625 C 4.363281 -14.003906 4.707031 -14.109375 5.09375 -14.203125 C 5.488281 -14.296875 6 -14.316406 6.625 -14.265625 C 7.375 -14.234375 7.867188 -13.890625 8.109375 -13.234375 C 8.359375 -12.585938 8.460938 -11.769531 8.421875 -10.78125 C 8.390625 -9.800781 8.300781 -8.804688 8.15625 -7.796875 C 7.96875 -6.523438 7.875 -5.4375 7.875 -4.53125 C 7.875 -3.625 8.132812 -3.097656 8.65625 -2.953125 C 9.351562 -2.765625 10.390625 -3.394531 11.765625 -4.84375 C 13.148438 -6.289062 14.628906 -8.726562 16.203125 -12.15625 Z M 16.203125 -12.15625 " />
      </g>
    </g>
  </g>
  <g fill="#ffffff" fill-opacity="1">
    <g transform="translate(207.461659, 202.41718)">
      <g>
        <path d="M 13.171875 -10.3125 C 12.648438 -9.226562 11.757812 -8.023438 10.5 -6.703125 C 9.238281 -5.378906 7.804688 -4.539062 6.203125 -4.1875 C 4.609375 -3.832031 3.082031 -4.382812 1.625 -5.84375 C 1.0625 -6.488281 0.648438 -7.226562 0.390625 -8.0625 C 0.128906 -8.894531 0.0351562 -9.71875 0.109375 -10.53125 C 0.109375 -10.757812 0.109375 -11.039062 0.109375 -11.375 C 0.109375 -12.238281 0.144531 -13.238281 0.21875 -14.375 C 0.289062 -15.507812 0.457031 -16.53125 0.71875 -17.4375 C 0.988281 -18.351562 1.398438 -18.90625 1.953125 -19.09375 C 3.566406 -19.5 4.441406 -18.941406 4.578125 -17.421875 C 4.578125 -16.929688 4.554688 -16.441406 4.515625 -15.953125 C 4.484375 -15.691406 4.46875 -15.453125 4.46875 -15.234375 C 4.4375 -14.523438 4.40625 -13.816406 4.375 -13.109375 C 4.375 -12.546875 4.347656 -11.984375 4.296875 -11.421875 C 4.253906 -8.972656 4.800781 -7.515625 5.9375 -7.046875 C 7.070312 -6.578125 8.367188 -7.070312 9.828125 -8.53125 C 11.285156 -9.988281 12.238281 -11.195312 12.6875 -12.15625 C 13.132812 -13.125 13.457031 -13.328125 13.65625 -12.765625 C 13.863281 -12.210938 13.703125 -11.394531 13.171875 -10.3125 Z M 4.234375 -24.328125 C 4.015625 -24.140625 3.75 -24.019531 3.4375 -23.96875 C 3.125 -23.914062 2.847656 -23.941406 2.609375 -24.046875 C 2.429688 -24.203125 2.316406 -24.398438 2.265625 -24.640625 C 2.210938 -24.890625 2.1875 -25.179688 2.1875 -25.515625 C 2.1875 -25.585938 2.203125 -25.65625 2.234375 -25.71875 C 2.265625 -26.019531 2.34375 -26.328125 2.46875 -26.640625 C 2.800781 -27.453125 3.503906 -27.820312 4.578125 -27.75 C 4.941406 -27.695312 5.226562 -27.546875 5.4375 -27.296875 C 5.65625 -27.046875 5.707031 -26.75 5.59375 -26.40625 C 5.332031 -25.570312 4.878906 -24.878906 4.234375 -24.328125 Z M 4.234375 -24.328125 " />
      </g>
    </g>
  </g>
  <g fill="#ffffff" fill-opacity="1">
    <g transform="translate(219.927524, 202.41718)">
      <g>
        <path d="M 39.84375 -12.390625 C 39.988281 -12.679688 40.21875 -12.832031 40.53125 -12.84375 C 40.84375 -12.863281 41.113281 -12.671875 41.34375 -12.265625 C 41.425781 -12.160156 41.34375 -11.875 41.09375 -11.40625 C 40.851562 -10.945312 40.53125 -10.425781 40.125 -9.84375 C 39.71875 -9.257812 39.328125 -8.722656 38.953125 -8.234375 C 38.578125 -7.753906 38.3125 -7.4375 38.15625 -7.28125 C 36.488281 -5.425781 34.804688 -4.0625 33.109375 -3.1875 C 31.421875 -2.3125 29.582031 -2.125 27.59375 -2.625 C 25.613281 -3.125 23.398438 -4.535156 20.953125 -6.859375 C 20.578125 -7.265625 20.203125 -7.671875 19.828125 -8.078125 C 19.722656 -8.191406 19.628906 -8.300781 19.546875 -8.40625 C 19.140625 -8.863281 18.691406 -8.921875 18.203125 -8.578125 C 17.691406 -8.210938 17.175781 -7.84375 16.65625 -7.46875 C 16.195312 -7.125 15.734375 -6.8125 15.265625 -6.53125 C 13.691406 -5.445312 12.03125 -4.53125 10.28125 -3.78125 C 8.414062 -2.957031 6.460938 -2.632812 4.421875 -2.8125 C 1.222656 -3.1875 -0.4375 -4.957031 -0.5625 -8.125 C -0.59375 -10.363281 -0.113281 -12.363281 0.875 -14.125 C 1.863281 -15.894531 3.242188 -17.195312 5.015625 -18.03125 C 6.785156 -18.875 8.820312 -19.039062 11.125 -18.53125 C 11.375 -18.476562 11.710938 -18.40625 12.140625 -18.3125 C 12.390625 -18.226562 12.703125 -18.148438 13.078125 -18.078125 C 12.859375 -18.597656 12.65625 -19.0625 12.46875 -19.46875 C 12.125 -20.144531 11.828125 -20.765625 11.578125 -21.328125 C 10.035156 -24.492188 8.78125 -28.113281 7.8125 -32.1875 C 6.851562 -36.257812 6.378906 -40.4375 6.390625 -44.71875 C 6.410156 -49 7.128906 -52.984375 8.546875 -56.671875 C 9.960938 -60.359375 12.3125 -63.394531 15.59375 -65.78125 C 17.675781 -67.1875 19.820312 -67.945312 22.03125 -68.0625 C 24.25 -68.1875 26.34375 -67.707031 28.3125 -66.625 C 30.289062 -65.539062 31.898438 -63.914062 33.140625 -61.75 C 34.722656 -58.769531 35.703125 -55.628906 36.078125 -52.328125 C 36.753906 -46.992188 36.644531 -42.015625 35.75 -37.390625 C 34.851562 -32.773438 33.269531 -28.410156 31 -24.296875 C 28.726562 -20.179688 25.84375 -16.1875 22.34375 -12.3125 C 22.007812 -11.9375 21.832031 -11.640625 21.8125 -11.421875 C 21.789062 -11.203125 21.953125 -10.890625 22.296875 -10.484375 C 23.003906 -9.554688 23.773438 -8.648438 24.609375 -7.765625 C 25.453125 -6.890625 26.390625 -6.15625 27.421875 -5.5625 C 28.878906 -4.9375 30.4375 -4.925781 32.09375 -5.53125 C 33.75 -6.144531 35.285156 -7.09375 36.703125 -8.375 C 38.117188 -9.664062 39.164062 -11.003906 39.84375 -12.390625 Z M 14.9375 -10.15625 C 15.375 -10.53125 15.40625 -10.953125 15.03125 -11.421875 C 14.8125 -11.691406 14.59375 -11.972656 14.375 -12.265625 C 13.757812 -13.003906 13.0625 -13.769531 12.28125 -14.5625 C 11.507812 -15.351562 10.703125 -15.953125 9.859375 -16.359375 C 9.023438 -16.765625 8.175781 -16.796875 7.3125 -16.453125 C 6.125 -15.890625 5.148438 -14.898438 4.390625 -13.484375 C 3.628906 -12.078125 3.179688 -10.628906 3.046875 -9.140625 C 2.910156 -7.648438 3.195312 -6.515625 3.90625 -5.734375 C 4.625 -4.960938 5.835938 -4.890625 7.546875 -5.515625 C 10.234375 -6.691406 12.695312 -8.238281 14.9375 -10.15625 Z M 20.5625 -15.671875 C 24.132812 -19.878906 26.804688 -24.023438 28.578125 -28.109375 C 30.347656 -32.191406 31.546875 -36.960938 32.171875 -42.421875 C 32.359375 -43.765625 32.441406 -45.519531 32.421875 -47.6875 C 32.410156 -49.851562 32.21875 -52.113281 31.84375 -54.46875 C 31.46875 -56.832031 30.796875 -58.984375 29.828125 -60.921875 C 28.867188 -62.859375 27.519531 -64.253906 25.78125 -65.109375 C 24.050781 -65.960938 21.832031 -65.960938 19.125 -65.109375 C 16.144531 -63.359375 13.929688 -61.039062 12.484375 -58.15625 C 11.046875 -55.269531 10.222656 -52.054688 10.015625 -48.515625 C 9.816406 -44.984375 10.050781 -41.367188 10.71875 -37.671875 C 11.394531 -33.984375 12.328125 -30.484375 13.515625 -27.171875 C 14.710938 -23.867188 16 -20.988281 17.375 -18.53125 C 17.519531 -18.226562 17.671875 -17.925781 17.828125 -17.625 C 18.234375 -16.625 18.828125 -15.71875 19.609375 -14.90625 C 19.722656 -15.007812 19.835938 -15.101562 19.953125 -15.1875 C 20.171875 -15.320312 20.375 -15.484375 20.5625 -15.671875 Z M 20.5625 -15.671875 " />
      </g>
    </g>
  </g>
  <g clip-path="url(#0c127b3ff7)">
    <g clip-path="url(#be71fcf387)">
      <g clip-path="url(#8e360837b3)">
        <path fill="#ffffff" d="M 122.648438 131.007812 C 122.242188 130.578125 121.566406 130.554688 121.136719 130.960938 C 120.707031 131.367188 120.683594 132.039062 121.085938 132.472656 C 123.601562 135.160156 125.824219 137.21875 128.1875 138.859375 L 128.253906 138.902344 C 130.613281 140.527344 133.089844 141.726562 136.109375 142.703125 C 155.464844 148.953125 181.019531 140.550781 205.925781 132.359375 C 240.554688 120.964844 273.921875 109.988281 286.125 140.371094 C 286.34375 140.917969 286.96875 141.1875 287.515625 140.964844 C 288.066406 140.746094 288.332031 140.121094 288.109375 139.574219 C 275.160156 107.339844 240.863281 118.621094 205.265625 130.328125 C 180.675781 138.417969 155.460938 146.714844 136.757812 140.675781 C 133.941406 139.765625 131.640625 138.652344 129.464844 137.152344 L 129.402344 137.105469 C 127.191406 135.566406 125.070312 133.601562 122.652344 131.011719 Z M 122.648438 131.007812 " fill-opacity="1" fill-rule="evenodd" />
      </g>
    </g>
  </g>
  <g fill="#ffffff" fill-opacity="1">
    <g transform="translate(195.803781, 213.442076)">
      <g>
        <path d="M 1.046875 -7 L 3.84375 -7 C 4.15625 -7 4.441406 -6.945312 4.703125 -6.84375 C 4.972656 -6.738281 5.203125 -6.59375 5.390625 -6.40625 C 5.585938 -6.21875 5.738281 -5.992188 5.84375 -5.734375 C 5.945312 -5.472656 6 -5.195312 6 -4.90625 C 6 -4.5 5.921875 -4.164062 5.765625 -3.90625 C 5.617188 -3.65625 5.453125 -3.453125 5.265625 -3.296875 C 5.054688 -3.128906 4.816406 -3 4.546875 -2.90625 L 6.203125 0 L 5.34375 0 L 3.796875 -2.796875 L 1.796875 -2.796875 L 1.796875 0 L 1.046875 0 Z M 3.84375 -3.5 C 4.269531 -3.5 4.609375 -3.625 4.859375 -3.875 C 5.117188 -4.132812 5.25 -4.476562 5.25 -4.90625 C 5.25 -5.332031 5.117188 -5.671875 4.859375 -5.921875 C 4.609375 -6.171875 4.269531 -6.296875 3.84375 -6.296875 L 1.796875 -6.296875 L 1.796875 -3.5 Z M 3.84375 -3.5 " />
      </g>
    </g>
  </g>
  <g fill="#ffffff" fill-opacity="1">
    <g transform="translate(208.951144, 213.442076)">
      <g>
        <path d="M 3.09375 -7 L 3.796875 -7 L 6.703125 0 L 5.90625 0 L 5.09375 -1.953125 L 1.796875 -1.953125 L 1 0 L 0.203125 0 Z M 4.796875 -2.65625 L 3.453125 -5.953125 L 2.09375 -2.65625 Z M 4.796875 -2.65625 " />
      </g>
    </g>
  </g>
  <g fill="#ffffff" fill-opacity="1">
    <g transform="translate(222.248449, 213.442076)">
      <g>
        <path d="M 1.046875 -7 L 1.703125 -7 L 4.59375 -3.203125 L 7.5 -7 L 8.15625 -7 L 8.15625 0 L 7.40625 0 L 7.40625 -5.703125 L 4.59375 -2 L 1.796875 -5.703125 L 1.796875 0 L 1.046875 0 Z M 1.046875 -7 " />
      </g>
    </g>
  </g>
  <g fill="#ffffff" fill-opacity="1">
    <g transform="translate(237.844848, 213.442076)">
      <g>
        <path d="M 4.203125 0.09375 C 3.703125 0.09375 3.234375 0.00390625 2.796875 -0.171875 C 2.359375 -0.359375 1.972656 -0.613281 1.640625 -0.9375 C 1.316406 -1.269531 1.0625 -1.65625 0.875 -2.09375 C 0.6875 -2.53125 0.59375 -3 0.59375 -3.5 C 0.59375 -4 0.6875 -4.46875 0.875 -4.90625 C 1.0625 -5.34375 1.316406 -5.722656 1.640625 -6.046875 C 1.972656 -6.378906 2.359375 -6.632812 2.796875 -6.8125 C 3.234375 -7 3.703125 -7.09375 4.203125 -7.09375 C 4.703125 -7.09375 5.171875 -7 5.609375 -6.8125 C 6.046875 -6.632812 6.425781 -6.378906 6.75 -6.046875 C 7.070312 -5.722656 7.328125 -5.34375 7.515625 -4.90625 C 7.703125 -4.46875 7.796875 -4 7.796875 -3.5 C 7.796875 -3 7.703125 -2.53125 7.515625 -2.09375 C 7.328125 -1.65625 7.070312 -1.269531 6.75 -0.9375 C 6.425781 -0.613281 6.046875 -0.359375 5.609375 -0.171875 C 5.171875 0.00390625 4.703125 0.09375 4.203125 0.09375 Z M 4.203125 -0.59375 C 4.597656 -0.59375 4.96875 -0.664062 5.3125 -0.8125 C 5.664062 -0.96875 5.96875 -1.171875 6.21875 -1.421875 C 6.476562 -1.679688 6.679688 -1.988281 6.828125 -2.34375 C 6.972656 -2.695312 7.046875 -3.082031 7.046875 -3.5 C 7.046875 -3.914062 6.972656 -4.300781 6.828125 -4.65625 C 6.679688 -5.007812 6.476562 -5.3125 6.21875 -5.5625 C 5.96875 -5.820312 5.664062 -6.023438 5.3125 -6.171875 C 4.96875 -6.328125 4.597656 -6.40625 4.203125 -6.40625 C 3.796875 -6.40625 3.421875 -6.328125 3.078125 -6.171875 C 2.734375 -6.023438 2.429688 -5.820312 2.171875 -5.5625 C 1.921875 -5.3125 1.71875 -5.007812 1.5625 -4.65625 C 1.414062 -4.300781 1.34375 -3.914062 1.34375 -3.5 C 1.34375 -3.082031 1.414062 -2.695312 1.5625 -2.34375 C 1.71875 -1.988281 1.921875 -1.679688 2.171875 -1.421875 C 2.429688 -1.171875 2.734375 -0.96875 3.078125 -0.8125 C 3.421875 -0.664062 3.796875 -0.59375 4.203125 -0.59375 Z M 4.203125 -0.59375 " />
      </g>
    </g>
  </g>
  <g fill="#ffffff" fill-opacity="1">
    <g transform="translate(252.641568, 213.442076)">
      <g>
        <path d="M 2.796875 0.09375 C 2.398438 0.09375 2.050781 0.0390625 1.75 -0.0625 C 1.457031 -0.164062 1.210938 -0.285156 1.015625 -0.421875 C 0.796875 -0.578125 0.609375 -0.753906 0.453125 -0.953125 L 0.90625 -1.453125 C 1.03125 -1.285156 1.179688 -1.144531 1.359375 -1.03125 C 1.515625 -0.914062 1.710938 -0.8125 1.953125 -0.71875 C 2.191406 -0.632812 2.472656 -0.59375 2.796875 -0.59375 C 3.328125 -0.59375 3.726562 -0.710938 4 -0.953125 C 4.269531 -1.203125 4.40625 -1.519531 4.40625 -1.90625 C 4.40625 -2.125 4.347656 -2.304688 4.234375 -2.453125 C 4.117188 -2.597656 3.972656 -2.71875 3.796875 -2.8125 C 3.628906 -2.914062 3.429688 -3.003906 3.203125 -3.078125 C 2.972656 -3.148438 2.738281 -3.222656 2.5 -3.296875 C 2.257812 -3.367188 2.023438 -3.445312 1.796875 -3.53125 C 1.566406 -3.625 1.363281 -3.738281 1.1875 -3.875 C 1.019531 -4.019531 0.878906 -4.195312 0.765625 -4.40625 C 0.648438 -4.625 0.59375 -4.890625 0.59375 -5.203125 C 0.59375 -5.453125 0.644531 -5.691406 0.75 -5.921875 C 0.851562 -6.148438 1.003906 -6.351562 1.203125 -6.53125 C 1.398438 -6.707031 1.632812 -6.84375 1.90625 -6.9375 C 2.1875 -7.039062 2.5 -7.09375 2.84375 -7.09375 C 3.1875 -7.09375 3.484375 -7.046875 3.734375 -6.953125 C 3.992188 -6.859375 4.207031 -6.757812 4.375 -6.65625 C 4.582031 -6.519531 4.757812 -6.367188 4.90625 -6.203125 L 4.40625 -5.703125 C 4.289062 -5.828125 4.160156 -5.941406 4.015625 -6.046875 C 3.878906 -6.140625 3.710938 -6.222656 3.515625 -6.296875 C 3.328125 -6.367188 3.101562 -6.40625 2.84375 -6.40625 C 2.601562 -6.40625 2.390625 -6.367188 2.203125 -6.296875 C 2.023438 -6.234375 1.867188 -6.144531 1.734375 -6.03125 C 1.609375 -5.925781 1.507812 -5.800781 1.4375 -5.65625 C 1.375 -5.507812 1.34375 -5.359375 1.34375 -5.203125 C 1.34375 -4.898438 1.4375 -4.664062 1.625 -4.5 C 1.8125 -4.34375 2.046875 -4.207031 2.328125 -4.09375 C 2.617188 -3.988281 2.925781 -3.894531 3.25 -3.8125 C 3.570312 -3.726562 3.875 -3.613281 4.15625 -3.46875 C 4.445312 -3.320312 4.6875 -3.125 4.875 -2.875 C 5.0625 -2.632812 5.15625 -2.3125 5.15625 -1.90625 C 5.15625 -1.613281 5.101562 -1.34375 5 -1.09375 C 4.894531 -0.851562 4.738281 -0.644531 4.53125 -0.46875 C 4.332031 -0.289062 4.085938 -0.148438 3.796875 -0.046875 C 3.503906 0.046875 3.171875 0.09375 2.796875 0.09375 Z M 2.796875 0.09375 " />
      </g>
    </g>
  </g>
  <g mask="url(#96560e8735)">
    <g transform="matrix(1, 0, 0, 1, 134, 241)">
      <g clip-path="url(#e38bd2faf4)">
        <g fill="#d44a9e" fill-opacity="1">
          <g transform="translate(0.924278, 9.87223)">
            <g>
              <path d="M 1.046875 -7 L 5.796875 -7 L 5.796875 -6.296875 L 1.796875 -6.296875 L 1.796875 -3.90625 L 5 -3.90625 L 5 -3.203125 L 1.796875 -3.203125 L 1.796875 0 L 1.046875 0 Z M 1.046875 -7 " />
            </g>
          </g>
        </g>
        <g fill="#d44a9e" fill-opacity="1">
          <g transform="translate(13.47188, 9.87223)">
            <g>
              <path d="M 3.796875 0.09375 C 3.398438 0.09375 3.023438 0.0195312 2.671875 -0.125 C 2.328125 -0.269531 2.023438 -0.46875 1.765625 -0.71875 C 1.515625 -0.976562 1.316406 -1.28125 1.171875 -1.625 C 1.023438 -1.976562 0.953125 -2.351562 0.953125 -2.75 L 0.953125 -7 L 1.703125 -7 L 1.703125 -2.75 C 1.703125 -2.4375 1.753906 -2.144531 1.859375 -1.875 C 1.960938 -1.613281 2.109375 -1.390625 2.296875 -1.203125 C 2.484375 -1.015625 2.703125 -0.863281 2.953125 -0.75 C 3.210938 -0.644531 3.492188 -0.59375 3.796875 -0.59375 C 4.097656 -0.59375 4.375 -0.644531 4.625 -0.75 C 4.882812 -0.863281 5.109375 -1.015625 5.296875 -1.203125 C 5.484375 -1.390625 5.628906 -1.613281 5.734375 -1.875 C 5.847656 -2.144531 5.90625 -2.4375 5.90625 -2.75 L 5.90625 -7 L 6.65625 -7 L 6.65625 -2.75 C 6.65625 -2.351562 6.578125 -1.976562 6.421875 -1.625 C 6.273438 -1.28125 6.070312 -0.976562 5.8125 -0.71875 C 5.5625 -0.46875 5.265625 -0.269531 4.921875 -0.125 C 4.578125 0.0195312 4.203125 0.09375 3.796875 0.09375 Z M 3.796875 0.09375 " />
            </g>
          </g>
        </g>
        <g fill="#d44a9e" fill-opacity="1">
          <g transform="translate(27.46891, 9.87223)">
            <g>
              <path d="M 1.046875 -7 L 1.796875 -7 L 1.796875 -0.703125 L 5.40625 -0.703125 L 5.40625 0 L 1.046875 0 Z M 1.046875 -7 " />
            </g>
          </g>
        </g>
        <g fill="#d44a9e" fill-opacity="1">
          <g transform="translate(39.466737, 9.87223)">
            <g>
              <path d="M 1.046875 -7 L 1.796875 -7 L 1.796875 -0.703125 L 5.40625 -0.703125 L 5.40625 0 L 1.046875 0 Z M 1.046875 -7 " />
            </g>
          </g>
        </g>
        <g fill="#d44a9e" fill-opacity="1">
          <g transform="translate(51.464565, 9.87223)">
            <g>
              <path d="M 0.453125 -3.296875 L 3.5 -3.296875 L 3.5 -2.65625 L 0.453125 -2.65625 Z M 0.453125 -3.296875 " />
            </g>
          </g>
        </g>
        <g fill="#d44a9e" fill-opacity="1">
          <g transform="translate(61.813039, 9.87223)">
            <g>
              <path d="M 2.796875 0.09375 C 2.398438 0.09375 2.050781 0.0390625 1.75 -0.0625 C 1.457031 -0.164062 1.210938 -0.285156 1.015625 -0.421875 C 0.796875 -0.578125 0.609375 -0.753906 0.453125 -0.953125 L 0.90625 -1.453125 C 1.03125 -1.285156 1.179688 -1.144531 1.359375 -1.03125 C 1.515625 -0.914062 1.710938 -0.8125 1.953125 -0.71875 C 2.191406 -0.632812 2.472656 -0.59375 2.796875 -0.59375 C 3.328125 -0.59375 3.726562 -0.710938 4 -0.953125 C 4.269531 -1.203125 4.40625 -1.519531 4.40625 -1.90625 C 4.40625 -2.125 4.347656 -2.304688 4.234375 -2.453125 C 4.117188 -2.597656 3.972656 -2.71875 3.796875 -2.8125 C 3.628906 -2.914062 3.429688 -3.003906 3.203125 -3.078125 C 2.972656 -3.148438 2.738281 -3.222656 2.5 -3.296875 C 2.257812 -3.367188 2.023438 -3.445312 1.796875 -3.53125 C 1.566406 -3.625 1.363281 -3.738281 1.1875 -3.875 C 1.019531 -4.019531 0.878906 -4.195312 0.765625 -4.40625 C 0.648438 -4.625 0.59375 -4.890625 0.59375 -5.203125 C 0.59375 -5.453125 0.644531 -5.691406 0.75 -5.921875 C 0.851562 -6.148438 1.003906 -6.351562 1.203125 -6.53125 C 1.398438 -6.707031 1.632812 -6.84375 1.90625 -6.9375 C 2.1875 -7.039062 2.5 -7.09375 2.84375 -7.09375 C 3.1875 -7.09375 3.484375 -7.046875 3.734375 -6.953125 C 3.992188 -6.859375 4.207031 -6.757812 4.375 -6.65625 C 4.582031 -6.519531 4.757812 -6.367188 4.90625 -6.203125 L 4.40625 -5.703125 C 4.289062 -5.828125 4.160156 -5.941406 4.015625 -6.046875 C 3.878906 -6.140625 3.710938 -6.222656 3.515625 -6.296875 C 3.328125 -6.367188 3.101562 -6.40625 2.84375 -6.40625 C 2.601562 -6.40625 2.390625 -6.367188 2.203125 -6.296875 C 2.023438 -6.234375 1.867188 -6.144531 1.734375 -6.03125 C 1.609375 -5.925781 1.507812 -5.800781 1.4375 -5.65625 C 1.375 -5.507812 1.34375 -5.359375 1.34375 -5.203125 C 1.34375 -4.898438 1.4375 -4.664062 1.625 -4.5 C 1.8125 -4.34375 2.046875 -4.207031 2.328125 -4.09375 C 2.617188 -3.988281 2.925781 -3.894531 3.25 -3.8125 C 3.570312 -3.726562 3.875 -3.613281 4.15625 -3.46875 C 4.445312 -3.320312 4.6875 -3.125 4.875 -2.875 C 5.0625 -2.632812 5.15625 -2.3125 5.15625 -1.90625 C 5.15625 -1.613281 5.101562 -1.34375 5 -1.09375 C 4.894531 -0.851562 4.738281 -0.644531 4.53125 -0.46875 C 4.332031 -0.289062 4.085938 -0.148438 3.796875 -0.046875 C 3.503906 0.046875 3.171875 0.09375 2.796875 0.09375 Z M 2.796875 0.09375 " />
            </g>
          </g>
        </g>
        <g fill="#d44a9e" fill-opacity="1">
          <g transform="translate(73.860846, 9.87223)">
            <g>
              <path d="M 2.40625 -6.296875 L 0.203125 -6.296875 L 0.203125 -7 L 5.34375 -7 L 5.34375 -6.296875 L 3.15625 -6.296875 L 3.15625 0 L 2.40625 0 Z M 2.40625 -6.296875 " />
            </g>
          </g>
        </g>
        <g fill="#d44a9e" fill-opacity="1">
          <g transform="translate(85.808689, 9.87223)">
            <g>
              <path d="M 3.09375 -7 L 3.796875 -7 L 6.703125 0 L 5.90625 0 L 5.09375 -1.953125 L 1.796875 -1.953125 L 1 0 L 0.203125 0 Z M 4.796875 -2.65625 L 3.453125 -5.953125 L 2.09375 -2.65625 Z M 4.796875 -2.65625 " />
            </g>
          </g>
        </g>
        <g fill="#d44a9e" fill-opacity="1">
          <g transform="translate(99.105996, 9.87223)">
            <g>
              <path d="M 4.203125 0.09375 C 3.703125 0.09375 3.234375 0.00390625 2.796875 -0.171875 C 2.359375 -0.359375 1.972656 -0.613281 1.640625 -0.9375 C 1.316406 -1.269531 1.0625 -1.65625 0.875 -2.09375 C 0.6875 -2.53125 0.59375 -3 0.59375 -3.5 C 0.59375 -4 0.6875 -4.46875 0.875 -4.90625 C 1.0625 -5.34375 1.316406 -5.722656 1.640625 -6.046875 C 1.972656 -6.378906 2.359375 -6.632812 2.796875 -6.8125 C 3.234375 -7 3.703125 -7.09375 4.203125 -7.09375 C 4.679688 -7.09375 5.097656 -7.015625 5.453125 -6.859375 C 5.804688 -6.710938 6.101562 -6.550781 6.34375 -6.375 C 6.613281 -6.15625 6.847656 -5.914062 7.046875 -5.65625 L 6.546875 -5.203125 C 6.390625 -5.429688 6.195312 -5.628906 5.96875 -5.796875 C 5.78125 -5.953125 5.535156 -6.09375 5.234375 -6.21875 C 4.941406 -6.34375 4.597656 -6.40625 4.203125 -6.40625 C 3.796875 -6.40625 3.421875 -6.328125 3.078125 -6.171875 C 2.734375 -6.023438 2.429688 -5.820312 2.171875 -5.5625 C 1.921875 -5.3125 1.71875 -5.007812 1.5625 -4.65625 C 1.414062 -4.300781 1.34375 -3.914062 1.34375 -3.5 C 1.34375 -3.082031 1.414062 -2.695312 1.5625 -2.34375 C 1.71875 -1.988281 1.921875 -1.679688 2.171875 -1.421875 C 2.429688 -1.171875 2.734375 -0.96875 3.078125 -0.8125 C 3.421875 -0.664062 3.796875 -0.59375 4.203125 -0.59375 C 4.597656 -0.59375 4.945312 -0.65625 5.25 -0.78125 C 5.550781 -0.90625 5.800781 -1.046875 6 -1.203125 C 6.226562 -1.367188 6.425781 -1.566406 6.59375 -1.796875 L 7.09375 -1.34375 C 6.894531 -1.070312 6.648438 -0.832031 6.359375 -0.625 C 6.109375 -0.4375 5.804688 -0.269531 5.453125 -0.125 C 5.097656 0.0195312 4.679688 0.09375 4.203125 0.09375 Z M 4.203125 0.09375 " />
            </g>
          </g>
        </g>
        <g fill="#d44a9e" fill-opacity="1">
          <g transform="translate(113.00307, 9.87223)">
            <g>
              <path d="M 1.046875 -7 L 1.796875 -7 L 1.796875 -3.046875 L 5.40625 -7 L 6.34375 -7 L 3.703125 -4.09375 L 6.59375 0 L 5.703125 0 L 3.203125 -3.546875 L 1.796875 -2.046875 L 1.796875 0 L 1.046875 0 Z M 1.046875 -7 " />
            </g>
          </g>
        </g>
        <g fill="#d44a9e" fill-opacity="1">
          <g transform="translate(4.346153, 19.622229)">
            <g>
              <path d="M 1.046875 -7 L 3.25 -7 C 3.757812 -7 4.234375 -6.90625 4.671875 -6.71875 C 5.117188 -6.53125 5.507812 -6.273438 5.84375 -5.953125 C 6.175781 -5.640625 6.4375 -5.269531 6.625 -4.84375 C 6.8125 -4.414062 6.90625 -3.96875 6.90625 -3.5 C 6.90625 -3.03125 6.8125 -2.582031 6.625 -2.15625 C 6.4375 -1.726562 6.175781 -1.351562 5.84375 -1.03125 C 5.507812 -0.71875 5.117188 -0.46875 4.671875 -0.28125 C 4.234375 -0.09375 3.757812 0 3.25 0 L 1.046875 0 Z M 3.25 -0.703125 C 3.664062 -0.703125 4.050781 -0.773438 4.40625 -0.921875 C 4.757812 -1.066406 5.0625 -1.265625 5.3125 -1.515625 C 5.570312 -1.773438 5.773438 -2.070312 5.921875 -2.40625 C 6.078125 -2.75 6.15625 -3.113281 6.15625 -3.5 C 6.15625 -3.882812 6.078125 -4.242188 5.921875 -4.578125 C 5.773438 -4.921875 5.570312 -5.21875 5.3125 -5.46875 C 5.0625 -5.726562 4.757812 -5.929688 4.40625 -6.078125 C 4.050781 -6.222656 3.664062 -6.296875 3.25 -6.296875 L 1.796875 -6.296875 L 1.796875 -0.703125 Z M 3.25 -0.703125 " />
            </g>
          </g>
        </g>
        <g fill="#d44a9e" fill-opacity="1">
          <g transform="translate(18.24323, 19.622229)">
            <g>
              <path d="M 1.046875 -7 L 5.84375 -7 L 5.84375 -6.296875 L 1.796875 -6.296875 L 1.796875 -4 L 5.046875 -4 L 5.046875 -3.296875 L 1.796875 -3.296875 L 1.796875 -0.703125 L 5.953125 -0.703125 L 5.953125 0 L 1.046875 0 Z M 1.046875 -7 " />
            </g>
          </g>
        </g>
        <g fill="#d44a9e" fill-opacity="1">
          <g transform="translate(31.040737, 19.622229)">
            <g>
              <path d="M 0.296875 -7 L 1.09375 -7 L 3.40625 -1.046875 L 5.703125 -7 L 6.5 -7 L 3.75 0 L 3.046875 0 Z M 0.296875 -7 " />
            </g>
          </g>
        </g>
        <g fill="#d44a9e" fill-opacity="1">
          <g transform="translate(44.238088, 19.622229)">
            <g>
              <path d="M 1.046875 -7 L 5.84375 -7 L 5.84375 -6.296875 L 1.796875 -6.296875 L 1.796875 -4 L 5.046875 -4 L 5.046875 -3.296875 L 1.796875 -3.296875 L 1.796875 -0.703125 L 5.953125 -0.703125 L 5.953125 0 L 1.046875 0 Z M 1.046875 -7 " />
            </g>
          </g>
        </g>
        <g fill="#d44a9e" fill-opacity="1">
          <g transform="translate(57.035595, 19.622229)">
            <g>
              <path d="M 1.046875 -7 L 1.796875 -7 L 1.796875 -0.703125 L 5.40625 -0.703125 L 5.40625 0 L 1.046875 0 Z M 1.046875 -7 " />
            </g>
          </g>
        </g>
        <g fill="#d44a9e" fill-opacity="1">
          <g transform="translate(69.033425, 19.622229)">
            <g>
              <path d="M 4.203125 0.09375 C 3.703125 0.09375 3.234375 0.00390625 2.796875 -0.171875 C 2.359375 -0.359375 1.972656 -0.613281 1.640625 -0.9375 C 1.316406 -1.269531 1.0625 -1.65625 0.875 -2.09375 C 0.6875 -2.53125 0.59375 -3 0.59375 -3.5 C 0.59375 -4 0.6875 -4.46875 0.875 -4.90625 C 1.0625 -5.34375 1.316406 -5.722656 1.640625 -6.046875 C 1.972656 -6.378906 2.359375 -6.632812 2.796875 -6.8125 C 3.234375 -7 3.703125 -7.09375 4.203125 -7.09375 C 4.703125 -7.09375 5.171875 -7 5.609375 -6.8125 C 6.046875 -6.632812 6.425781 -6.378906 6.75 -6.046875 C 7.070312 -5.722656 7.328125 -5.34375 7.515625 -4.90625 C 7.703125 -4.46875 7.796875 -4 7.796875 -3.5 C 7.796875 -3 7.703125 -2.53125 7.515625 -2.09375 C 7.328125 -1.65625 7.070312 -1.269531 6.75 -0.9375 C 6.425781 -0.613281 6.046875 -0.359375 5.609375 -0.171875 C 5.171875 0.00390625 4.703125 0.09375 4.203125 0.09375 Z M 4.203125 -0.59375 C 4.597656 -0.59375 4.96875 -0.664062 5.3125 -0.8125 C 5.664062 -0.96875 5.96875 -1.171875 6.21875 -1.421875 C 6.476562 -1.679688 6.679688 -1.988281 6.828125 -2.34375 C 6.972656 -2.695312 7.046875 -3.082031 7.046875 -3.5 C 7.046875 -3.914062 6.972656 -4.300781 6.828125 -4.65625 C 6.679688 -5.007812 6.476562 -5.3125 6.21875 -5.5625 C 5.96875 -5.820312 5.664062 -6.023438 5.3125 -6.171875 C 4.96875 -6.328125 4.597656 -6.40625 4.203125 -6.40625 C 3.796875 -6.40625 3.421875 -6.328125 3.078125 -6.171875 C 2.734375 -6.023438 2.429688 -5.820312 2.171875 -5.5625 C 1.921875 -5.3125 1.71875 -5.007812 1.5625 -4.65625 C 1.414062 -4.300781 1.34375 -3.914062 1.34375 -3.5 C 1.34375 -3.082031 1.414062 -2.695312 1.5625 -2.34375 C 1.71875 -1.988281 1.921875 -1.679688 2.171875 -1.421875 C 2.429688 -1.171875 2.734375 -0.96875 3.078125 -0.8125 C 3.421875 -0.664062 3.796875 -0.59375 4.203125 -0.59375 Z M 4.203125 -0.59375 " />
            </g>
          </g>
        </g>
        <g fill="#d44a9e" fill-opacity="1">
          <g transform="translate(83.830149, 19.622229)">
            <g>
              <path d="M 1.046875 -7 L 3.703125 -7 C 4.023438 -7 4.320312 -6.941406 4.59375 -6.828125 C 4.875 -6.710938 5.113281 -6.554688 5.3125 -6.359375 C 5.507812 -6.160156 5.664062 -5.925781 5.78125 -5.65625 C 5.894531 -5.394531 5.953125 -5.109375 5.953125 -4.796875 C 5.953125 -4.484375 5.894531 -4.191406 5.78125 -3.921875 C 5.664062 -3.660156 5.507812 -3.429688 5.3125 -3.234375 C 5.113281 -3.035156 4.875 -2.878906 4.59375 -2.765625 C 4.320312 -2.648438 4.023438 -2.59375 3.703125 -2.59375 L 1.796875 -2.59375 L 1.796875 0 L 1.046875 0 Z M 3.703125 -3.296875 C 4.148438 -3.296875 4.507812 -3.429688 4.78125 -3.703125 C 5.0625 -3.984375 5.203125 -4.347656 5.203125 -4.796875 C 5.203125 -5.253906 5.0625 -5.617188 4.78125 -5.890625 C 4.507812 -6.160156 4.148438 -6.296875 3.703125 -6.296875 L 1.796875 -6.296875 L 1.796875 -3.296875 Z M 3.703125 -3.296875 " />
            </g>
          </g>
        </g>
        <g fill="#d44a9e" fill-opacity="1">
          <g transform="translate(96.727617, 19.622229)">
            <g>
              <path d="M 1.046875 -7 L 5.84375 -7 L 5.84375 -6.296875 L 1.796875 -6.296875 L 1.796875 -4 L 5.046875 -4 L 5.046875 -3.296875 L 1.796875 -3.296875 L 1.796875 -0.703125 L 5.953125 -0.703125 L 5.953125 0 L 1.046875 0 Z M 1.046875 -7 " />
            </g>
          </g>
        </g>
        <g fill="#d44a9e" fill-opacity="1">
          <g transform="translate(109.52512, 19.622229)">
            <g>
              <path d="M 1.046875 -7 L 3.84375 -7 C 4.15625 -7 4.441406 -6.945312 4.703125 -6.84375 C 4.972656 -6.738281 5.203125 -6.59375 5.390625 -6.40625 C 5.585938 -6.21875 5.738281 -5.992188 5.84375 -5.734375 C 5.945312 -5.472656 6 -5.195312 6 -4.90625 C 6 -4.5 5.921875 -4.164062 5.765625 -3.90625 C 5.617188 -3.65625 5.453125 -3.453125 5.265625 -3.296875 C 5.054688 -3.128906 4.816406 -3 4.546875 -2.90625 L 6.203125 0 L 5.34375 0 L 3.796875 -2.796875 L 1.796875 -2.796875 L 1.796875 0 L 1.046875 0 Z M 3.84375 -3.5 C 4.269531 -3.5 4.609375 -3.625 4.859375 -3.875 C 5.117188 -4.132812 5.25 -4.476562 5.25 -4.90625 C 5.25 -5.332031 5.117188 -5.671875 4.859375 -5.921875 C 4.609375 -6.171875 4.269531 -6.296875 3.84375 -6.296875 L 1.796875 -6.296875 L 1.796875 -3.5 Z M 3.84375 -3.5 " />
            </g>
          </g>
        </g>
      </g>
    </g>
  </g>
</svg>